<?xml version="1.0" encoding="UTF-8"?>
<svg width="24" height="24" version="1.1" viewBox="0 0 24 24" xmlns="http://www.w3.org/2000/svg">
 <path d="M6 4C4.892 4 4 4.892 4 6v12c0 1.108.892 2 2 2h12c1.108 0 2-.892 2-2V6c0-1.108-.892-2-2-2H6z" fill="#304251" style="isolation:auto;mix-blend-mode:normal"/>
 <path d="M6 4C4.892 4 4 4.892 4 6v1c0-1.108.892-2 2-2h12c1.108 0 2 .892 2 2V6c0-1.108-.892-2-2-2H6z" fill="#fff" fill-opacity=".08" style="isolation:auto;mix-blend-mode:normal"/>
 <g fill="#f9f9f9">
  <rect x="7.3" y="10.4" width="1.4" height="3.2" rx=".7"/>
  <rect x="9.6" y="8.4" width="1.4" height="7.2" rx=".7"/>
  <rect x="11.9" y="6.8" width="1.4" height="10.4" rx=".7"/>
  <rect x="14.2" y="9.2" width="1.4" height="5.6" rx=".7"/>
  <rect x="16.5" y="11" width="1.4" height="2" rx=".7"/>
 </g>
</svg>
